HIERARCHY
ROOT Hips
{
  OFFSET 13.6774 106.653 -34.4427
  CHANNELS 6 Xposition Yposition Zposition Zrotation Xrotation Yrotation
  JOINT ToSpine
  {
    OFFSET -2.69724 7.43032 -0.144315
    CHANNELS 3 Zrotation Xrotation Yrotation
    JOINT Spine
    {
      OFFSET -0.0310711 10.7595 1.96963
      CHANNELS 3 Zrotation Xrotation Yrotation
      JOINT Spine1
      {
        OFFSET 19.9056 3.91189 0.764692
        CHANNELS 3 Zrotation Xrotation Yrotation
        JOINT Neck
        {
          OFFSET 25.9749 7.03908 -0.130764
          CHANNELS 3 Zrotation Xrotation Yrotation
          JOINT Head
          {
            OFFSET 9.52751 0.295786 -0.907742
            CHANNELS 3 Zrotation Xrotation Yrotation
            End Site
            {
              OFFSET 16.4037 0.713936 2.7358
            }
          }
        }
        JOINT LeftShoulder
        {
          OFFSET 17.7449 4.33886 11.7777
          CHANNELS 3 Zrotation Xrotation Yrotation
          JOINT LeftArm
          {
            OFFSET 0.911315 1.27913 9.80584
            CHANNELS 3 Zrotation Xrotation Yrotation
            JOINT LeftForeArm
            {
              OFFSET 28.6126 1.18197 -3.53199
              CHANNELS 3 Zrotation Xrotation Yrotation
              JOINT LeftHand
              {
                OFFSET 27.5088 0.0218783 0.327423
                CHANNELS 3 Zrotation Xrotation Yrotation
                End Site
                {
                  OFFSET 18.6038 -0.000155887 0.382096
                }
              }
            }
          }
        }
        JOINT RightShoulder
        {
          OFFSET 17.1009 2.89543 -12.2328
          CHANNELS 3 Zrotation Xrotation Yrotation
          JOINT RightArm
          {
            OFFSET 1.4228 0.178766 -10.211
            CHANNELS 3 Zrotation Xrotation Yrotation
            JOINT RightForeArm
            {
              OFFSET 28.733 1.87905 2.64907
              CHANNELS 3 Zrotation Xrotation Yrotation
              JOINT RightHand
              {
                OFFSET 27.4588 0.290562 -0.101845
                CHANNELS 3 Zrotation Xrotation Yrotation
                End Site
                {
                  OFFSET 17.8396 -0.255518 -0.000602873
                }
              }
            }
          }
        }
      }
    }
  }
  JOINT LeftUpLeg
  {
    OFFSET -5.61296 -2.22332 -10.2353
    CHANNELS 3 Zrotation Xrotation Yrotation
    JOINT LeftLeg
    {
      OFFSET 2.56703 -44.7417 -7.93097
      CHANNELS 3 Zrotation Xrotation Yrotation
      JOINT LeftFoot
      {
        OFFSET 3.16933 -46.5642 -3.96578
        CHANNELS 3 Zrotation Xrotation Yrotation
        JOINT LeftToeBase
        {
          OFFSET 0.346054 -6.02161 12.8035
          CHANNELS 3 Zrotation Xrotation Yrotation
          End Site
          {
            OFFSET 0.134235 -1.35082 5.13018
          }
        }
      }
    }
  }
  JOINT RightUpLeg
  {
    OFFSET -5.7928 -1.72406 10.6446
    CHANNELS 3 Zrotation Xrotation Yrotation
    JOINT RightLeg
    {
      OFFSET -2.57161 -44.7178 -7.85259
      CHANNELS 3 Zrotation Xrotation Yrotation
      JOINT RightFoot
      {
        OFFSET -3.10148 -46.5936 -4.03391
        CHANNELS 3 Zrotation Xrotation Yrotation
        JOINT RightToeBase
        {
          OFFSET -0.0828122 -6.13587 12.8035
          CHANNELS 3 Zrotation Xrotation Yrotation
          End Site
          {
            OFFSET -0.131328 -1.35082 5.13018
          }
        }
      }
    }
  }
}
MOTION
Frames: 10
Frame Time: 0.03333333333333333
0.0000 93.1000 0.0000 68.5780 -31.5233 -9.7360 -71.0999 0.1640 88.6125 88.2899 72.9329 -6.6591 -0.4344 21.4860 4.1389 -128.2755 29.3335 165.2880 180.1469 70.3348 -144.7024 -0.2793 -16.0715 -28.1004 -80.1189 24.9079 -143.4442 16.9454 -3.1700 -97.3016 -0.1637 -0.2470 0.0505 -1.8974 5.8687 39.4986 -136.2288 -0.7738 96.4855 15.2947 -3.8376 76.7654 0.1810 0.0225 -0.1238 -45.9847 12.7432 99.4298 -3.9270 48.2649 -10.5439 2.4496 -15.1810 -2.1401 3.5704 -12.1155 13.9292 -40.1237 -16.9939 76.1502 0.9706 37.1422 -1.2740 -5.8335 1.8342 0.1459 0.5937 -12.5602 -3.5851 
0.0000 93.1000 0.0000 68.1724 -31.0765 -9.9820 -71.1900 -1.8197 88.3848 88.2710 73.1468 -5.6328 -0.5032 20.9695 3.9702 -127.8726 29.3393 167.0119 179.4703 69.7536 -145.6381 -2.3785 -16.0960 -28.9653 -80.4975 25.1135 -141.4183 17.2677 -2.2645 -98.1371 -0.6158 2.3334 0.7736 -1.3101 5.9546 39.0456 -137.2087 -1.3519 96.2162 15.9655 -3.8003 80.2097 0.8418 -2.9500 1.2017 -46.0056 12.2883 99.3414 -5.0020 48.3455 -9.9104 1.2095 -15.2216 -3.6911 2.9081 -12.6008 13.4269 -39.9407 -16.6924 76.1059 0.5481 37.0038 -0.4129 -6.6349 1.0650 0.2648 1.7359 -13.2705 -2.9214 
0.0000 93.1000 0.0000 68.2310 -29.6543 -9.7155 -70.9790 -0.0114 87.7177 88.7813 72.1919 -5.7998 0.0284 20.6898 2.9222 -128.0340 29.8362 166.7072 -179.5200 70.6881 -146.9364 -0.3656 -15.8623 -29.9939 -80.0912 26.0549 -140.4601 16.9510 -3.8016 -99.1641 -0.0447 -0.4294 0.2267 -1.8839 6.1491 38.9527 -137.9415 -1.5425 95.9592 15.3414 -1.6759 82.6982 -0.4055 0.4629 0.3753 -44.9175 12.8089 99.0691 -5.2914 48.4199 -11.2761 0.9267 -14.7642 -1.5863 3.7994 -13.1294 14.1563 -41.2895 -16.6275 74.5743 0.6004 36.8355 -0.6640 -6.5063 -0.4286 -0.0303 1.7010 -12.1815 -3.5144 
0.0000 93.1000 0.0000 68.2195 -29.5715 -9.6593 -70.9576 -0.4346 87.7606 89.0671 72.3195 -6.9372 -0.5484 20.6731 3.5911 -127.4259 30.0664 165.8433 -178.7610 71.2086 -149.8685 -0.7345 -16.1431 -30.1678 -79.4713 26.4675 -139.3232 17.0409 -4.2050 -100.3209 0.0025 -0.4422 0.0391 -2.3418 6.2168 39.5223 -138.6530 -0.0881 96.0414 16.6889 -1.6923 84.0388 -0.5963 0.4258 0.0922 -43.9128 13.5315 99.2171 -4.6448 49.1190 -10.8225 0.0637 -15.9659 -1.2995 4.3396 -12.3633 13.6875 -40.8653 -17.2569 73.3309 0.8294 37.3786 -0.1685 -5.7995 -1.3027 -0.4719 0.3027 -9.7502 -1.7920 
0.0000 93.1000 0.0000 68.2548 -29.3272 -8.9275 -70.9237 -0.0140 87.8722 90.9270 72.0867 -8.0804 -0.3871 20.6183 4.2468 -126.8146 30.1767 165.7156 -177.3143 71.6729 -150.3459 -0.5515 -15.9296 -30.0351 -79.8901 27.1459 -137.3882 17.0998 -3.5021 -101.0994 -0.1070 -0.0618 0.0723 -1.7573 6.1134 39.7984 -138.0485 0.9770 96.1197 16.3487 -1.7191 84.9358 0.0223 -0.0324 0.4405 -42.8797 15.6054 98.8395 -4.7370 51.2764 -12.9534 -1.3637 -13.6819 -1.7883 5.2320 -13.9265 15.5751 -41.2360 -17.4118 72.1027 0.6200 36.5072 -1.4757 -6.0931 -3.0640 0.3673 0.9224 -8.9461 -2.0528 
0.0000 93.1000 0.0000 68.4465 -28.3127 -8.9514 -70.7811 -0.1410 88.0127 93.8686 71.9743 -10.8539 -1.5079 20.2368 5.2957 -125.8550 29.9151 164.9299 -176.0231 72.3029 -151.5373 -0.7325 -16.1722 -29.9028 -78.9579 27.0468 -136.1534 16.8198 -3.9807 -101.0991 0.0143 0.0842 0.0556 -1.8103 6.0921 39.9709 -139.1248 1.1955 96.3168 15.9322 -1.9610 85.0188 -0.0461 -0.2107 0.2746 -39.9054 16.8632 98.0978 -6.1574 54.0209 -13.9661 -2.5364 -13.4536 -1.8231 6.3347 -15.8510 18.6974 -41.5799 -17.2275 70.9011 0.3606 38.0097 -0.6480 -6.2448 -3.8079 0.6906 1.1360 -8.9911 -1.8852 
0.0000 93.1000 0.0000 68.4128 -27.3484 -7.8973 -70.7216 -0.3640 88.0247 96.1957 71.5461 -12.9943 -1.8896 19.6780 6.1628 -125.3328 29.6699 164.0408 -172.8475 72.3028 -153.4091 -1.0649 -15.8187 -30.2698 -78.8874 28.1558 -136.3745 17.5686 -4.1432 -101.1094 0.0580 0.4125 0.1243 -1.9053 5.9855 40.0013 -139.1937 1.0104 97.5877 15.4676 -2.2250 85.1372 0.2669 -0.5643 0.4697 -38.8177 17.7916 98.1914 -7.8535 55.9265 -14.1653 -1.8233 -13.2017 -2.2612 8.2871 -19.9935 20.9322 -41.3301 -17.0710 70.1479 0.8146 39.0510 0.4789 -5.6159 -3.8551 0.5699 1.4022 -8.6151 -2.7615 
0.0000 93.1000 0.0000 68.0367 -28.2072 -8.2172 -70.6969 0.0834 88.0418 95.7906 70.8635 -12.6103 -1.7355 19.1293 7.0019 -125.0033 29.3576 162.8180 -169.5075 71.9644 -156.4646 -0.7365 -16.1449 -29.9925 -79.1632 28.2818 -135.9857 17.8996 -3.8448 -100.9668 -0.0212 -0.0193 -0.2365 -1.8773 6.2879 41.1796 -139.0811 1.7777 98.4098 15.1470 -1.9246 82.9724 0.1916 -0.1098 0.3263 -38.2123 18.1418 96.9658 -7.1100 58.2229 -13.8266 -2.6499 -13.9833 -2.2314 8.4093 -19.5983 19.7906 -40.9351 -17.2324 69.1485 0.6557 40.2293 0.4821 -6.3262 -4.8660 0.9631 1.3877 -8.9382 -3.9288 
0.0000 93.1000 0.0000 69.3296 -28.0222 -7.0418 -70.9018 -0.3256 88.0184 96.0321 71.0820 -12.2880 -1.2648 19.0858 7.4690 -123.8814 28.7571 160.5298 -168.4639 71.9193 -156.7081 -1.0927 -16.0544 -29.9650 -79.2422 28.6031 -135.9881 18.6372 -3.7970 -100.1353 -0.3519 0.4336 0.1695 -1.8152 6.0148 40.7551 -138.9303 1.5270 98.2426 14.9980 -3.0355 80.9983 0.1272 -0.5659 0.5748 -39.1079 18.4538 96.9910 -7.2359 57.6086 -12.9274 -2.5033 -13.5156 -2.1351 7.5180 -18.4566 17.5258 -40.3560 -16.7654 69.3397 0.9883 41.6094 0.1119 -5.9902 -4.9948 0.5243 1.1893 -9.9113 -4.2787 
0.0000 93.1000 0.0000 68.4655 -29.3300 -7.2021 -70.9186 -0.2870 88.0362 94.8974 71.7175 -11.3420 -0.8125 19.2701 8.0561 -123.0725 28.5188 159.8991 -168.6368 72.1314 -157.7409 -0.9153 -16.2761 -29.9238 -78.1480 28.8784 -135.8143 19.2273 -3.6046 -99.8280 -0.1017 0.0584 0.0667 -2.0197 6.0417 40.9598 -138.0360 0.9575 99.3489 14.3958 -3.2950 79.8361 -0.1689 -0.1487 0.3840 -39.8946 17.9014 96.9447 -7.1385 57.1170 -12.5681 -2.0686 -14.3531 -1.7758 7.2879 -17.4294 15.3271 -39.5964 -16.9820 71.2757 1.8664 42.2360 0.4609 -4.9010 -4.9842 0.1572 1.1299 -9.5563 -5.1315 
